<svg width="30" height="31" viewBox="0 0 30 31" fill="none" xmlns="http://www.w3.org/2000/svg">
<g clip-path="url(#clip0_1_171)">
<path d="M13.9949 15.1845C15.3499 16.8766 15.3944 18.9695 12.7354 22.1056C10.0763 25.2417 11.7875 28.0534 14.0204 29.5992" stroke="#202020" stroke-width="1.4" stroke-miterlimit="10"/>
<path d="M19.6565 13.9122C20.1908 15.4707 20.0954 17.3601 18.4478 19.6374C16.9084 21.7557 16.145 23.7977 17.8117 25.9987" stroke="#202020" stroke-width="1.4" stroke-miterlimit="10"/>
<path d="M8.90581 8.82316L7.63354 11.3677" stroke="#202020" stroke-width="1.4" stroke-miterlimit="10"/>
<path d="M9.54196 14.5484L6.3613 17.0929V19.6374L3.81677 18.3651L2.5445 19.6374L0.636108 19.0013V16.4567L1.27224 15.8206V14.5484H2.5445L5.72517 10.7316V8.82316L9.54196 5.6425L7.63356 1.69211L13.9949 4.19847V1.18957L18.5178 4.19847L19.7201 2.4173L22.9007 6.56489L24.173 4.83461L26.0051 10.1272L27.9389 8.39059L27.29 13.6832L29.0903 13.1807L27.36 19.5293" stroke="#202020" stroke-width="1.4" stroke-miterlimit="10"/>
<path d="M16.5395 11.3677C16.5395 14.7901 13.2062 15.8206 11.4504 15.8206L8.26978 18.3651" stroke="#202020" stroke-width="1.4" stroke-miterlimit="10"/>
</g>
<defs>
<clipPath id="clip0_1_171">
<rect width="30" height="30.1209" fill="white"/>
</clipPath>
</defs>
</svg>
