<svg width="30" height="28" viewBox="0 0 30 28" fill="none" xmlns="http://www.w3.org/2000/svg">
<g clip-path="url(#clip0_1_214)">
<path d="M14.2576 0V3.28376" stroke="#202020" stroke-width="1.4" stroke-miterlimit="10"/>
<path d="M14.2648 14.7254V17.8172" stroke="#202020" stroke-width="1.4" stroke-miterlimit="10"/>
<path d="M26.2197 11.6143C23.0079 14.6318 33.965 20.3742 24.9124 26.7018H3.39889C-3.70593 19.8897 5.3466 15.8 2.1324 12.7824" stroke="#202020" stroke-width="1.4" stroke-miterlimit="10"/>
<path d="M6.2725 19.8897H5.25068C5.25068 19.8897 0.722012 20.0576 2.41307 15.9966" stroke="#202020" stroke-width="1.4" stroke-miterlimit="10"/>
<path d="M26.5124 15.4114C26.5172 16.0926 26.4212 16.6707 26.2581 17.1648C25.716 18.8103 24.1377 19.8897 22.4059 19.8897" stroke="#202020" stroke-width="1.4" stroke-miterlimit="10"/>
<path d="M26.2197 11.6143C27.3087 10.5901 29.2276 11.6359 29.2276 11.6359L28.8942 12.3819C28.8942 12.3819 28.4601 12.5786 27.4167 13.2166C27.9803 15.1523 29.621 14.6726 29.621 14.6726" stroke="#202020" stroke-width="1.4" stroke-miterlimit="10"/>
<path d="M18.8606 14.7254H8.02588C8.02588 14.7254 10.8419 9.8297 8.02588 3.12305H18.8606C22.7129 10.0312 18.8606 14.7254 18.8606 14.7254Z" stroke="#202020" stroke-width="1.4" stroke-miterlimit="10"/>
<path d="M22.3657 21.299C22.6321 19.6633 21.522 18.1213 19.8863 17.8549C18.2506 17.5885 16.7087 18.6986 16.4423 20.3343C16.1759 21.97 17.286 23.5119 18.9217 23.7783C20.5574 24.0447 22.0993 22.9347 22.3657 21.299Z" stroke="#202020" stroke-width="1.4" stroke-miterlimit="10"/>
<path d="M19.4051 21.6167C19.8449 21.6167 20.2015 21.2602 20.2015 20.8203C20.2015 20.3805 19.8449 20.024 19.4051 20.024C18.9653 20.024 18.6088 20.3805 18.6088 20.8203C18.6088 21.2602 18.9653 21.6167 19.4051 21.6167Z" fill="#202020"/>
<path d="M11.6959 22.3675C11.1706 23.2382 10.2159 23.8211 9.1245 23.8211C7.46703 23.8211 6.12378 22.4778 6.12378 20.8203C6.12378 19.1629 7.46703 17.8196 9.1245 17.8196C10.2159 17.8196 11.1706 18.4025 11.6959 19.2732" stroke="#202020" stroke-width="1.4" stroke-miterlimit="10"/>
<path d="M9.12448 21.6167C9.56429 21.6167 9.92083 21.2602 9.92083 20.8203C9.92083 20.3805 9.56429 20.024 9.12448 20.024C8.68466 20.024 8.32812 20.3805 8.32812 20.8203C8.32812 21.2602 8.68466 21.6167 9.12448 21.6167Z" fill="#202020"/>
<path d="M16.8337 22.3699C16.3084 23.2382 15.3537 23.8211 14.2648 23.8211C12.6073 23.8211 11.264 22.4778 11.264 20.8203C11.264 19.1629 12.6073 17.8196 14.2648 17.8196C15.3537 17.8196 16.3084 18.4001 16.8337 19.2684" stroke="#202020" stroke-width="1.4" stroke-miterlimit="10"/>
<path d="M14.2649 21.6167C14.7047 21.6167 15.0612 21.2602 15.0612 20.8203C15.0612 20.3805 14.7047 20.024 14.2649 20.024C13.825 20.024 13.4685 20.3805 13.4685 20.8203C13.4685 21.2602 13.825 21.6167 14.2649 21.6167Z" fill="#202020"/>
</g>
<defs>
<clipPath id="clip0_1_214">
<rect width="30" height="27.3015" fill="white"/>
</clipPath>
</defs>
</svg>
