<svg width="110" height="111" viewBox="0 0 110 111" fill="none" xmlns="http://www.w3.org/2000/svg">
<g clip-path="url(#clip0_1_247)">
<path d="M84.1169 36.935L56.7456 21.1093L56.6954 21.0841C56.6263 21.0464 56.5573 21.015 56.4882 20.9898C55.6719 20.6124 54.73 20.6124 53.9137 20.9898C53.8446 21.015 53.7755 21.0464 53.7065 21.0841L53.6562 21.1093L26.285 36.935C25.0668 37.6395 24.307 38.9541 24.307 40.3693V71.5238C24.307 72.6246 24.7717 73.6561 25.5503 74.3984C25.6633 74.5493 25.8077 74.6814 25.9836 74.782L26.285 74.9582L32.9284 78.8014L52.8148 90.2995L53.2167 90.5323C53.8258 90.8845 54.5102 91.0606 55.1947 91.0606C55.8791 91.0606 56.5635 90.8845 57.1726 90.5323L57.5745 90.2995L84.4058 74.782C84.5753 74.6814 84.726 74.5493 84.839 74.3984C85.6176 73.6561 86.0823 72.6246 86.0823 71.5238V40.3693C86.0823 38.9604 85.3225 37.6458 84.1044 36.935H84.1169ZM84.2299 39.212C84.2739 39.2875 84.343 39.4384 84.2802 39.6271L75.0183 67.2089C75.0183 67.2089 75.0057 67.2466 74.9618 67.2529C74.9178 67.2529 74.9052 67.234 74.899 67.2214L56.5887 35.4506C56.5887 35.4506 56.5698 35.4128 56.5887 35.3814C56.6075 35.3562 56.6263 35.3499 56.6389 35.3499C56.6389 35.3499 56.6452 35.3499 56.6514 35.3499L71.3449 37.3124L83.8783 38.9855C84.0792 39.0107 84.186 39.1428 84.2299 39.212ZM55.9042 22.3421C55.9042 22.3421 55.9042 22.3044 55.9356 22.2855C55.9482 22.2792 55.9607 22.273 55.967 22.273C55.967 22.273 55.967 22.273 55.9733 22.273C55.9984 22.2855 56.0235 22.2918 56.0424 22.3107L81.9945 37.3187L63.3263 34.8278L56.8273 33.9598L55.9545 33.8403C55.9231 33.8403 55.8979 33.8089 55.8979 33.7774V22.3359L55.9042 22.3421ZM55.0942 36.0229C55.0942 36.0229 55.1319 35.9726 55.1507 35.9475C55.1507 35.9349 55.1695 35.916 55.2072 35.916C55.2449 35.916 55.2575 35.9412 55.2637 35.9475C55.2763 35.9726 55.2951 35.9852 55.3077 36.0104C55.3265 36.0544 55.3516 36.1047 55.3768 36.1487L73.6871 67.9196C73.7247 67.9825 73.7687 68.0454 73.8127 68.102C73.8252 68.1524 73.844 68.1964 73.8754 68.2404C73.8754 68.253 73.8943 68.2719 73.8754 68.3033C73.8566 68.3348 73.8315 68.3348 73.8189 68.3348C73.7499 68.3348 73.6871 68.3474 73.6243 68.3662H36.7964C36.7337 68.3474 36.6709 68.3348 36.6018 68.3348C36.5892 68.3348 36.5641 68.3348 36.5453 68.3033C36.5264 68.2719 36.5453 68.2467 36.5453 68.2404L55.0377 36.1487C55.0628 36.111 55.0754 36.067 55.0942 36.0292V36.0229ZM46.9563 26.5942L54.3595 22.3107C54.3595 22.3107 54.4098 22.2855 54.4349 22.273C54.4349 22.273 54.4349 22.273 54.4411 22.273C54.4474 22.273 54.46 22.273 54.4725 22.2855C54.5039 22.3044 54.5039 22.3296 54.5039 22.3421V33.7837C54.5039 33.8151 54.4788 33.8466 54.4474 33.8466L53.5746 33.9661L28.4074 37.325L46.9563 26.6005V26.5942ZM26.1406 39.1805C26.1782 39.1176 26.2661 39.017 26.4294 38.9918L28.5267 38.7151L53.763 35.3499C53.763 35.3499 53.8007 35.3499 53.8258 35.3814C53.8509 35.4128 53.8383 35.438 53.8258 35.4506L35.4401 67.3472L26.0966 39.5328C26.0464 39.3755 26.0966 39.2497 26.1343 39.1868L26.1406 39.1805ZM25.9773 71.939C25.8077 71.8257 25.7073 71.6433 25.7073 71.4358V42.7658L34.335 68.6115C34.3475 68.643 34.335 68.6807 34.2973 68.6933L32.4889 69.4607L26.5424 71.9893C26.354 72.071 26.1468 72.0522 25.9773 71.939ZM39.2767 80.8456L35.5594 78.6944L35.2204 78.4995L26.9945 73.7379C26.8752 73.6687 26.7622 73.5869 26.6617 73.4989C26.6617 73.4611 26.6868 73.4486 26.6994 73.4423L27.095 73.2724L34.8499 69.9765L35.0006 69.9136C35.0006 69.9136 35.0571 69.9136 35.0759 69.9324L40.2312 75.5494L44.2813 79.9713L51.6218 87.9785L39.283 80.8393L39.2767 80.8456ZM56.281 88.6578L55.5337 89.4755C55.4207 89.6013 55.2826 89.6202 55.2072 89.6202C55.1319 89.6202 54.9937 89.6013 54.8807 89.4755L54.1335 88.6578L50.9122 85.1417L36.8153 69.7626H73.6117L66.3529 77.6755L56.2873 88.6578H56.281ZM83.4199 73.7379L58.7927 87.9785L75.3385 69.9324C75.3385 69.9324 75.3887 69.9073 75.4139 69.9136L75.5646 69.9765L83.062 73.1655L83.715 73.4423C83.715 73.4423 83.7527 73.4611 83.7527 73.4989C83.646 73.5869 83.5392 73.6687 83.4199 73.7379ZM84.7009 54.8049V71.159C84.7009 71.4295 84.5753 71.6685 84.3492 71.8132C84.1232 71.9641 83.8532 71.9893 83.6083 71.8823L76.1109 68.6933C76.1109 68.6933 76.0669 68.643 76.0732 68.6115L84.7009 42.7658V54.7987V54.8049Z" fill="white"/>
<path d="M11.1708 47.5148C11.1206 47.6909 11.0578 47.9048 10.9887 48.1627C10.9196 48.4206 10.8443 48.7099 10.7752 49.0307L10.5115 50.2573C10.4738 50.4837 10.411 50.7793 10.3231 51.1567C10.3231 51.1819 10.2854 51.1819 10.2163 51.1693C10.1473 51.1567 10.1221 51.1379 10.1221 51.1127C10.2038 50.7605 10.2352 50.4963 10.2163 50.3139C10.1975 50.1378 10.1159 49.9994 9.97145 49.8987C9.82702 49.8044 9.58841 49.7163 9.25561 49.6408L1.6012 47.8859C1.2684 47.8104 1.02351 47.7853 0.853967 47.8105C0.684427 47.8356 0.552562 47.9237 0.458373 48.0683C0.364185 48.213 0.276275 48.4583 0.194645 48.798C0.188365 48.8294 0.15069 48.842 0.0816181 48.8231C0.0188255 48.8106 -0.0125708 48.7854 -0.0062915 48.7477L0.213482 47.8734C0.351626 47.3701 0.452094 46.9676 0.521166 46.672C0.627913 46.2191 0.715823 45.7536 0.791174 45.2693C0.897921 44.6906 0.979552 44.3006 1.02351 44.1056C1.28096 42.9923 1.72678 42.0488 2.36727 41.2877C3.00775 40.5203 3.76126 39.992 4.6278 39.69C5.49434 39.3881 6.40483 39.3504 7.353 39.5642C8.42047 39.8095 9.31213 40.275 10.0154 40.9543C10.725 41.6337 11.2085 42.4388 11.4596 43.376C11.7171 44.3132 11.7296 45.2756 11.5036 46.2694C11.422 46.6216 11.3089 47.0368 11.1645 47.5148H11.1708ZM10.9824 44.3509C10.7501 43.7282 10.3105 43.1873 9.67632 42.7155C9.04212 42.2501 8.23209 41.9041 7.25253 41.6777C6.31692 41.4638 5.43154 41.4135 4.60268 41.5204C3.77382 41.6337 3.07682 41.9041 2.51169 42.3318C1.95284 42.7596 1.58864 43.3194 1.43166 44.0176C1.27468 44.7032 1.237 45.1875 1.30607 45.4706C1.37514 45.7536 1.63259 45.9486 2.05958 46.043L9.49422 47.7476C9.93377 47.8482 10.2729 47.8042 10.5052 47.6155C10.7375 47.4268 10.9322 46.999 11.0829 46.3386C11.2461 45.6341 11.2085 44.9674 10.9761 44.3446L10.9824 44.3509Z" fill="white"/>
<path d="M20.7655 26.2168C20.8221 26.2546 20.8472 26.2797 20.8346 26.2986C20.6337 26.6257 20.4641 26.8836 20.3323 27.066L19.6541 28.1227L18.9948 29.2109C18.888 29.3996 18.7373 29.6512 18.5427 29.972C18.5238 30.0034 18.4862 29.9971 18.4297 29.9594C18.3731 29.9216 18.3543 29.8902 18.3731 29.865C18.5678 29.5568 18.6808 29.3115 18.7185 29.1291C18.7562 28.9467 18.7248 28.7894 18.6243 28.6573C18.5176 28.5252 18.3166 28.3806 18.0215 28.217L11.4346 24.55L10.7438 23.097L17.0482 32.1546C17.0733 32.1986 17.0671 32.2489 17.0357 32.3056C16.998 32.3622 16.954 32.3873 16.9038 32.3873L6.68745 31.6136C6.21022 31.5822 5.82719 31.6199 5.53834 31.7269C5.2495 31.8338 5.01716 32.0162 4.84762 32.2867C4.82879 32.3181 4.79111 32.3118 4.7346 32.2741C4.67808 32.2364 4.65925 32.2049 4.67808 32.1798L5.11763 31.513C5.21182 31.3872 5.32485 31.2174 5.45671 31.0035L5.92138 30.2298C5.96533 30.1355 6.02812 30.0223 6.11603 29.8902C6.19139 29.7644 6.29813 29.6952 6.42372 29.6826C6.5493 29.67 6.83815 29.6763 7.2777 29.6952L15.3277 30.2487L16.1691 31.7772L10.5555 23.575C10.455 23.4303 10.3985 23.3171 10.3859 23.2228C10.3734 23.1284 10.3985 23.0278 10.4613 22.9208C10.5178 22.8328 10.5806 22.7384 10.6622 22.6315C10.7376 22.5246 10.8255 22.4051 10.9134 22.2604L11.4283 21.4049C11.5036 21.2666 11.6167 21.0716 11.7736 20.82C11.7925 20.7885 11.8302 20.7948 11.8867 20.8326C11.9432 20.8703 11.962 20.9017 11.9432 20.9269C11.6606 21.3798 11.5476 21.7635 11.6041 22.078C11.6606 22.3925 11.8867 22.6629 12.2823 22.8831L19.0262 26.6257C19.3339 26.7955 19.5725 26.8898 19.742 26.9213C19.9116 26.9527 20.0623 26.915 20.1941 26.8018C20.326 26.6949 20.4893 26.4873 20.6776 26.1917C20.6902 26.1728 20.7216 26.1791 20.7844 26.2168H20.7655ZM5.83347 31.0475L6.12231 30.645L12.8223 35.0606C13.3309 35.394 13.8018 35.5449 14.2288 35.5135C14.6558 35.482 14.9949 35.2681 15.2398 34.8719C15.2586 34.8404 15.2963 34.8467 15.3528 34.8845C15.4093 34.9222 15.4282 34.9536 15.4093 34.9788C15.2461 35.2367 15.1142 35.438 15.02 35.5764L14.5114 36.3626L13.9588 37.281C13.8709 37.4382 13.7516 37.6521 13.5883 37.91C13.5695 37.9414 13.5318 37.9351 13.4753 37.8974C13.4188 37.8596 13.4 37.8282 13.4188 37.803C13.6637 37.4068 13.7077 37.0042 13.557 36.5891C13.4063 36.1739 13.0734 35.8028 12.5774 35.4757L5.83975 31.0538L5.83347 31.0475Z" fill="white"/>
<path d="M28.916 6.86871C29.4246 6.65485 29.8579 6.51647 30.2095 6.46615C30.3163 6.44099 30.3916 6.44099 30.4419 6.47244C30.4921 6.50389 30.5549 6.56679 30.6302 6.66743L32.0493 8.56701C32.0493 8.56701 32.0493 8.62991 32.0117 8.66765C31.9677 8.70539 31.9238 8.71169 31.8861 8.68653C31.1326 8.05752 30.3791 7.6927 29.6193 7.57948C28.8595 7.46626 28.1311 7.62351 27.4278 8.05752C26.7748 8.46008 26.2913 8.99474 25.9961 9.66148C25.6947 10.3282 25.6005 11.083 25.7073 11.9196C25.814 12.7562 26.1343 13.6116 26.6743 14.4922C27.2206 15.3791 27.8485 16.0647 28.5581 16.5491C29.2739 17.0334 30.0086 17.2913 30.7621 17.329C31.5156 17.3605 32.244 17.1655 32.9347 16.744C33.6003 16.3352 34.0461 15.8131 34.2785 15.1715C34.5108 14.53 34.5736 13.6745 34.4731 12.5926C34.4669 12.5549 34.4857 12.5297 34.5422 12.5109C34.5987 12.492 34.6301 12.4983 34.649 12.5234L35.5281 14.4545C35.5783 14.5803 35.6034 14.6683 35.6097 14.7124C35.6097 14.7564 35.5783 14.8256 35.5155 14.9199C34.8248 15.7817 34.021 16.4924 33.1168 17.046C32.087 17.6813 31.0447 18.0461 29.9897 18.1593C28.9348 18.2662 27.9616 18.109 27.0699 17.6875C26.1782 17.2661 25.4561 16.6057 24.9036 15.7062C24.3447 14.7878 24.081 13.8255 24.1186 12.8128C24.1563 11.8001 24.4703 10.8377 25.0543 9.91937C25.6382 9.00103 26.442 8.22735 27.4655 7.60464C27.9176 7.32788 28.4011 7.08257 28.9097 6.86871H28.916Z" fill="white"/>
<path d="M41.5373 12.4668C40.6268 12.1775 39.8545 11.6806 39.2203 10.9635C38.5861 10.2465 38.1591 9.40359 37.9267 8.43493C37.6567 7.30273 37.707 6.25858 38.0837 5.31508C38.4605 4.36529 39.0444 3.58532 39.8419 2.95632C40.6394 2.33361 41.5059 1.90589 42.4415 1.68574C43.4839 1.43414 44.4634 1.4593 45.3739 1.75493C46.2844 2.05685 47.0442 2.55376 47.6596 3.25195C48.275 3.95014 48.6957 4.75527 48.9092 5.65474C49.1478 6.65485 49.1101 7.6361 48.7836 8.60476C48.4571 9.56713 47.9108 10.3974 47.1447 11.0956C46.3786 11.7938 45.4744 12.2656 44.4446 12.5172C43.4211 12.7625 42.4541 12.7436 41.5436 12.4605L41.5373 12.4668ZM46.41 11.0453C46.8119 10.5672 47.0693 9.95712 47.1761 9.20231C47.2828 8.44751 47.2263 7.59207 46.994 6.63598C46.7491 5.62329 46.3786 4.75527 45.8763 4.03192C45.3739 3.30856 44.7837 2.79278 44.093 2.47828C43.4023 2.17007 42.6676 2.10717 41.889 2.29587C40.8905 2.53489 40.2124 3.10099 39.8545 3.98159C39.4966 4.8622 39.484 5.98182 39.8105 7.34047C40.068 8.40977 40.4573 9.32182 40.9847 10.0892C41.5122 10.8503 42.115 11.4038 42.7932 11.7372C43.4713 12.0769 44.1683 12.1586 44.8842 11.9825C45.4995 11.8315 46.0081 11.5233 46.41 11.0453Z" fill="white"/>
<path d="M55.9105 0.55353L56.394 0.64159L55.3704 8.61105C55.2951 9.21489 55.3704 9.70551 55.5839 10.0766C55.8037 10.4477 56.1365 10.6553 56.6012 10.7056C56.6326 10.7056 56.6451 10.7434 56.6388 10.8126C56.6326 10.8817 56.6137 10.9132 56.5761 10.9069C56.2747 10.8755 56.036 10.844 55.8728 10.8126L54.9497 10.6993L53.8885 10.605C53.7064 10.5987 53.4678 10.5798 53.1601 10.5484C53.1287 10.5484 53.1099 10.5106 53.1225 10.4414C53.135 10.3723 53.1476 10.3408 53.1853 10.3471C53.6436 10.3974 54.0267 10.259 54.3344 9.93824C54.642 9.61745 54.8304 9.15828 54.9058 8.56073L55.9105 0.55353ZM66.7987 11.8756C66.7924 11.9448 66.7736 11.9762 66.7547 11.9762C66.3717 11.9385 66.0703 11.9007 65.8442 11.863L64.6009 11.712L63.3325 11.5988C63.119 11.5862 62.8239 11.5611 62.4534 11.5233C62.422 11.5233 62.4095 11.4856 62.4158 11.4164C62.422 11.3472 62.4409 11.3158 62.4786 11.322C62.8365 11.3598 63.1065 11.3598 63.2886 11.3158C63.4707 11.2717 63.5963 11.1774 63.6716 11.0201C63.747 10.8692 63.7846 10.6239 63.7972 10.2842L64.1928 2.74246L65.1912 1.48445L59.835 11.1333C59.8099 11.1774 59.7596 11.1962 59.6906 11.1837C59.6215 11.1711 59.5775 11.1522 59.565 11.1019L55.7723 1.56622C55.5902 1.12592 55.3893 0.798841 55.1695 0.57869C54.9497 0.358539 54.6797 0.239029 54.3658 0.201289C54.3344 0.201289 54.3218 0.163549 54.3281 0.0943584C54.3344 0.0251681 54.3532 -0.00628197 54.3909 8.05428e-06L55.1821 0.100648C55.339 0.125808 55.54 0.157259 55.7849 0.182419L56.6828 0.257899C56.7833 0.257899 56.9151 0.264189 57.0721 0.283059C57.2165 0.295639 57.3233 0.358539 57.3924 0.47176C57.4614 0.57869 57.5807 0.836581 57.7566 1.24543L60.7894 8.73685L59.7848 10.171L64.6763 1.5159C64.7579 1.36494 64.8396 1.2643 64.9212 1.20769C65.0028 1.15108 65.1033 1.13221 65.2289 1.14479C65.3293 1.15737 65.4424 1.17624 65.5742 1.19511C65.6998 1.22027 65.8505 1.23914 66.0201 1.25801L67.0185 1.34607C67.1754 1.34607 67.4015 1.37123 67.6966 1.40268C67.728 1.40268 67.7406 1.44042 67.7343 1.50961C67.728 1.5788 67.7092 1.61025 67.6715 1.60396C67.144 1.54735 66.7485 1.61654 66.491 1.80524C66.2336 1.99394 66.0891 2.31474 66.064 2.76762L65.6684 10.4792C65.6559 10.8314 65.6684 11.0893 65.7124 11.2529C65.7563 11.4164 65.8568 11.5359 66.0138 11.6114C66.1708 11.6869 66.4219 11.7372 66.7736 11.7749C66.7987 11.7749 66.805 11.8127 66.7987 11.8819V11.8756Z" fill="white"/>
<path d="M75.2757 4.31496L75.7027 4.56657L71.9414 11.6617C71.6588 12.2027 71.5521 12.687 71.6274 13.1084C71.7028 13.5298 71.9414 13.8443 72.3558 14.0519C72.3872 14.0645 72.3872 14.1022 72.3558 14.1651C72.3244 14.228 72.293 14.2469 72.2679 14.2343C71.9979 14.0959 71.7844 13.9827 71.64 13.901L70.8174 13.4669L69.8567 13.0015C69.6872 12.9323 69.4674 12.8254 69.1974 12.687C69.166 12.6744 69.166 12.6367 69.1974 12.5738C69.2288 12.5109 69.2602 12.492 69.2916 12.5046C69.706 12.7121 70.1141 12.7184 70.5097 12.5297C70.9116 12.341 71.2507 11.9762 71.527 11.4478L75.2883 4.31496H75.2757ZM81.4733 18.7569C81.4419 18.8198 81.4168 18.8449 81.398 18.8323C81.0526 18.6625 80.7826 18.5178 80.5879 18.4046L79.4765 17.8259L78.3337 17.2724C78.139 17.1843 77.869 17.0585 77.5362 16.8887C77.5048 16.8761 77.5048 16.8384 77.5362 16.7755C77.5676 16.7126 77.599 16.6937 77.6304 16.7063C77.9507 16.8698 78.2081 16.9642 78.3902 16.9831C78.5723 17.0082 78.7293 16.9579 78.8486 16.8447C78.9679 16.7315 79.0935 16.5113 79.2316 16.1968L82.2582 9.28408L83.6397 8.46009L75.2317 15.593C75.1941 15.6244 75.1438 15.6244 75.081 15.593C75.0182 15.5615 74.9931 15.5238 74.9931 15.4735L74.8048 5.21444C74.7922 4.7364 74.7168 4.359 74.585 4.07594C74.4531 3.79289 74.2459 3.58532 73.9633 3.44065C73.9319 3.42807 73.9319 3.39033 73.9633 3.32743C73.9947 3.26453 74.0261 3.24566 74.0575 3.25824L74.7608 3.62935C74.8989 3.71112 75.0748 3.80547 75.3008 3.91869L76.1108 4.30867C76.205 4.34641 76.3243 4.39674 76.4688 4.46593C76.6006 4.52883 76.676 4.62947 76.7011 4.75527C76.7262 4.88107 76.7513 5.16412 76.7702 5.60442L76.9711 13.6871L75.5269 14.6746L83.1562 8.30284C83.288 8.18962 83.4011 8.12672 83.4952 8.10156C83.5894 8.0764 83.6899 8.10156 83.8029 8.15188C83.8908 8.19591 83.9976 8.25252 84.1043 8.32171C84.2111 8.3909 84.3492 8.46009 84.4999 8.54186L85.4041 8.97587C85.5486 9.03877 85.7558 9.13312 86.0195 9.26521C86.0509 9.27779 86.0509 9.31553 86.0195 9.37843C85.9881 9.44133 85.9567 9.4602 85.9253 9.44762C85.4481 9.2086 85.0588 9.13312 84.7511 9.22118C84.4434 9.30924 84.1985 9.55455 84.0164 9.96969L80.927 17.046C80.7889 17.373 80.7135 17.6184 80.701 17.7882C80.6884 17.958 80.7387 18.1027 80.858 18.2285C80.9773 18.3543 81.197 18.4927 81.511 18.6499C81.5298 18.6625 81.5236 18.694 81.4984 18.7569H81.4733Z" fill="white"/>
<path d="M91.6645 28.9152C91.6143 28.9656 91.5703 28.9656 91.5327 28.9278C91.3757 28.7643 91.1371 28.5064 90.8231 28.1479C90.4903 27.7767 90.2517 27.5126 90.101 27.3553C89.9063 27.154 89.6552 26.915 89.3538 26.6382C89.0712 26.3804 88.8514 26.1665 88.6882 26.003C88.6568 25.9715 88.663 25.9275 88.7133 25.8834C88.7635 25.8331 88.8012 25.8268 88.8326 25.8583C89.0398 26.0659 89.2093 26.1979 89.3412 26.2483C89.4731 26.2986 89.5987 26.2671 89.7117 26.1539C89.8498 26.0218 90.0005 25.7136 90.1638 25.2356L92.6315 18.0146L94.2579 17.5932L86.572 20.3797C86.233 20.5055 85.963 20.6627 85.762 20.864C85.4732 21.1471 85.3413 21.4741 85.3853 21.839C85.4229 22.2038 85.6113 22.5623 85.9504 22.9083C85.9881 22.946 85.9881 22.99 85.9378 23.0404C85.8876 23.0907 85.8437 23.0907 85.806 23.0529C85.6616 22.9083 85.4669 22.6881 85.2157 22.3988C84.9332 22.0717 84.682 21.8012 84.4559 21.5748C84.2424 21.3546 83.9787 21.103 83.6648 20.8074C83.3822 20.5495 83.1561 20.3356 82.9866 20.1595C82.9552 20.1281 82.9615 20.084 83.0117 20.04C83.0619 19.9897 83.0996 19.9834 83.131 20.0149C83.3508 20.2413 83.5831 20.386 83.828 20.4489C84.0729 20.5118 84.3869 20.5055 84.7762 20.4237C85.1655 20.3419 85.6992 20.1784 86.3711 19.9331L94.7288 16.9139C94.7665 16.9076 94.8167 16.9327 94.8732 16.9894C94.936 17.0523 94.9611 17.1026 94.9423 17.134L91.9283 26.0092C91.6268 26.8521 91.4636 27.4748 91.4259 27.8774C91.3882 28.2799 91.4699 28.5756 91.6645 28.7831C91.7022 28.8209 91.7022 28.8649 91.652 28.9152H91.6645ZM88.3679 19.4236L91.7776 22.9271L91.5201 23.3423L87.853 19.5746L88.3679 19.4236Z" fill="white"/>
<path d="M102.672 27.7327L102.867 28.2045L95.6834 31.7772C95.1496 32.0414 94.7791 32.3685 94.5719 32.7459C94.371 33.1233 94.3647 33.5132 94.5594 33.9095C94.5719 33.9284 94.5468 33.9535 94.484 33.985C94.4212 34.0164 94.3898 34.0227 94.3773 33.9976C94.2391 33.7145 94.1324 33.4944 94.0696 33.3371L93.6803 32.5068L93.1968 31.5696C93.1026 31.3998 92.9707 31.1545 92.8137 30.8337C92.8012 30.8022 92.82 30.7708 92.8828 30.7393C92.9456 30.7079 92.9833 30.7079 92.9958 30.7393C93.2156 31.1859 93.5484 31.4627 93.9879 31.5633C94.4275 31.664 94.9173 31.5822 95.4573 31.318L102.672 27.7264V27.7327ZM97.0585 40.1115C97.0271 40.0737 97.0146 40.036 97.0271 40.0045L101.824 28.2674C102.051 27.7138 102.182 27.2673 102.208 26.9402C102.233 26.6131 102.182 26.3175 102.051 26.0533C102.038 26.0344 102.063 26.0092 102.126 25.9778C102.189 25.9463 102.22 25.9401 102.233 25.9652L102.534 26.6131C102.591 26.7515 102.678 26.9465 102.804 27.1981L103.394 28.3491C103.476 28.4875 103.564 28.6573 103.664 28.8586C103.702 28.9404 103.715 29.0096 103.696 29.0725C103.677 29.1354 103.627 29.2486 103.545 29.4121C103.394 29.7015 103.3 29.9028 103.256 30.0097L99.6016 38.7906L97.159 40.1618C97.159 40.1618 97.0962 40.1618 97.0648 40.1241L97.0585 40.1115ZM97.1527 40.1492L97.3913 39.4825L104.707 35.8405C105.253 35.5701 105.63 35.243 105.831 34.8656C106.032 34.4882 106.038 34.0982 105.843 33.7019C105.831 33.6831 105.856 33.6579 105.919 33.6265C105.981 33.595 106.013 33.5887 106.025 33.6139L106.333 34.2743C106.471 34.6077 106.597 34.8908 106.71 35.1109C106.81 35.3122 106.961 35.5952 107.162 35.9475L107.513 36.6268C107.513 36.6268 107.501 36.6708 107.438 36.7023C107.375 36.7337 107.344 36.74 107.331 36.7149C107.13 36.306 106.81 36.067 106.377 35.9978C105.944 35.9223 105.46 36.0167 104.92 36.2871L97.1464 40.1555L97.1527 40.1492Z" fill="white"/>
<path d="M99.2311 47.4331C99.2185 47.2506 99.1934 47.0305 99.1683 46.7663C99.1369 46.5021 99.0992 46.2065 99.0553 45.8794L98.8543 44.6403C98.8104 44.4201 98.7601 44.1182 98.7036 43.7345C98.7036 43.7094 98.735 43.6968 98.7978 43.6842C98.8669 43.6716 98.8983 43.6842 98.9045 43.7031C98.9611 44.0616 99.0239 44.3195 99.1055 44.4767C99.1871 44.634 99.3127 44.7346 99.4822 44.7724C99.6518 44.8101 99.9092 44.8038 100.242 44.7535L108.003 43.5836C108.336 43.5332 108.581 43.464 108.725 43.3823C108.87 43.3005 108.964 43.1684 109.002 42.9986C109.039 42.8288 109.033 42.5646 108.976 42.2186C108.976 42.1872 109.002 42.162 109.071 42.1557C109.14 42.1494 109.171 42.1557 109.177 42.1935L109.297 43.0866C109.353 43.6024 109.403 44.0176 109.447 44.3195C109.516 44.7787 109.604 45.2441 109.711 45.7222C109.818 46.3008 109.893 46.6908 109.918 46.8921C110.088 48.0243 110.013 49.0622 109.699 50.0057C109.385 50.9492 108.876 51.7228 108.179 52.3204C107.482 52.9179 106.647 53.2891 105.686 53.4337C104.6 53.5973 103.608 53.4903 102.697 53.1192C101.787 52.7481 101.046 52.1694 100.468 51.3958C99.8904 50.6158 99.5262 49.7289 99.3692 48.7162C99.3127 48.3577 99.2687 47.93 99.2248 47.4331H99.2311ZM100.562 50.3076C101.008 50.8045 101.611 51.1505 102.371 51.3517C103.13 51.553 104.01 51.5782 105.008 51.4272C105.956 51.2825 106.798 51.0058 107.532 50.6032C108.267 50.1944 108.813 49.6912 109.184 49.081C109.548 48.4772 109.68 47.823 109.573 47.1186C109.466 46.4266 109.328 45.9612 109.159 45.7222C108.989 45.4831 108.681 45.4014 108.248 45.4643L100.707 46.6028C100.261 46.672 99.9595 46.8355 99.815 47.0997C99.6643 47.3639 99.6392 47.8293 99.7397 48.5024C99.8464 49.2194 100.123 49.8233 100.569 50.3202L100.562 50.3076Z" fill="white"/>
<path d="M25.0982 90.1612C25.4499 90.5889 25.7073 90.96 25.8643 91.2808C25.9145 91.3751 25.9397 91.4506 25.9271 91.5072C25.9145 91.5638 25.8706 91.6456 25.7952 91.7463L24.4012 93.6584C24.4012 93.6584 24.3447 93.6836 24.2945 93.6584C24.2443 93.627 24.2254 93.5892 24.238 93.5389C24.6147 92.6332 24.7466 91.8029 24.6336 91.0418C24.5205 90.2807 24.1501 89.6328 23.5347 89.0856C22.957 88.5761 22.3102 88.2742 21.5818 88.1861C20.8535 88.0918 20.1062 88.2238 19.3402 88.5698C18.5741 88.9157 17.8457 89.4756 17.1675 90.2492C16.4768 91.0292 16.0059 91.8343 15.7547 92.6583C15.5035 93.4823 15.4721 94.2623 15.6605 94.9982C15.8489 95.7341 16.2508 96.3694 16.8598 96.9104C17.4438 97.4262 18.078 97.7029 18.7562 97.7407C19.4343 97.7784 20.2758 97.5834 21.2742 97.1683C21.3056 97.1494 21.337 97.1683 21.3746 97.2123C21.4123 97.2563 21.4186 97.2941 21.3935 97.3192L19.8111 98.7282C19.7044 98.8162 19.629 98.8666 19.585 98.8791C19.5411 98.8917 19.4657 98.8791 19.359 98.854C18.3355 98.4451 17.425 97.8853 16.6275 97.1808C15.7233 96.3757 15.064 95.4888 14.6496 94.5139C14.2351 93.5389 14.1033 92.5577 14.2414 91.5764C14.3795 90.5952 14.8003 89.7146 15.4973 88.922C16.2068 88.1169 17.0545 87.5823 18.0278 87.3244C19.0011 87.0665 20.0183 87.0791 21.0607 87.3747C22.1093 87.664 23.0763 88.2113 23.9742 89.0038C24.3698 89.3561 24.7466 89.746 25.1045 90.1738L25.0982 90.1612Z" fill="white"/>
<path d="M25.136 102.955C25.1674 102.892 25.1987 102.873 25.2239 102.886C25.5504 103.043 25.7953 103.137 25.9711 103.156C26.1406 103.182 26.2913 103.131 26.4106 103.005C26.5362 102.886 26.6681 102.672 26.8188 102.364L30.2787 95.3064C30.4294 95.0045 30.511 94.7655 30.5298 94.5956C30.5487 94.4258 30.4984 94.2811 30.3729 94.149C30.2473 94.0169 30.0275 93.8786 29.7135 93.7213C29.6821 93.7087 29.6821 93.671 29.7135 93.6081C29.7449 93.5452 29.7763 93.5263 29.8014 93.5389L36.2565 96.7154C36.357 96.7657 36.3884 96.8349 36.3444 96.9292L35.3774 98.9735C35.3774 98.9735 35.3335 98.9986 35.2707 98.9735C35.2079 98.9483 35.1828 98.9295 35.189 98.8917C35.3146 98.225 35.2581 97.6526 35.0069 97.1745C34.7558 96.6965 34.3225 96.3065 33.6946 95.9983L33.2362 95.7719C32.9285 95.6209 32.6773 95.5769 32.4701 95.6398C32.2629 95.7027 32.0934 95.8725 31.9552 96.143L28.533 103.125C28.3886 103.421 28.3384 103.666 28.3761 103.861C28.42 104.056 28.5581 104.219 28.803 104.339L29.3054 104.584C30.0966 104.974 30.8124 105.125 31.4466 105.031C32.0808 104.943 32.6773 104.609 33.2362 104.037C33.2488 104.018 33.2739 104.018 33.3115 104.037C33.3429 104.05 33.3681 104.075 33.3869 104.1C33.4057 104.125 33.412 104.144 33.4057 104.156C32.916 104.899 32.5141 105.597 32.1938 106.245C32.1562 106.327 32.1122 106.377 32.062 106.396C32.0117 106.415 31.9427 106.402 31.8548 106.358L25.1297 103.049C25.1297 103.049 25.0983 102.999 25.1297 102.936L25.136 102.955ZM32.6773 101.339C32.4764 100.942 32.0745 100.596 31.478 100.301L29.4247 99.288L29.6319 98.8603L31.7041 99.8792C32.2943 100.169 32.7966 100.288 33.2048 100.238C33.6192 100.187 33.9144 99.9799 34.0965 99.6151C34.109 99.5836 34.1467 99.5836 34.2032 99.6151C34.2597 99.6465 34.2786 99.6717 34.266 99.7031L33.5753 101.068L33.2299 101.804C33.0792 102.163 32.9536 102.439 32.8594 102.641C32.8469 102.659 32.8155 102.653 32.7527 102.628C32.6899 102.597 32.6648 102.571 32.6773 102.553C32.8846 102.137 32.8846 101.729 32.6773 101.332V101.339Z" fill="white"/>
<path d="M41.8827 99.1056L42.3788 99.2314L40.9596 107.138C40.8529 107.729 40.8906 108.22 41.0727 108.61C41.2548 109 41.5625 109.232 41.9957 109.314C42.0208 109.314 42.0208 109.352 42.0146 109.421C42.002 109.49 41.9832 109.522 41.9643 109.516C41.6504 109.459 41.4118 109.409 41.2485 109.371L40.3506 109.188L39.3145 109.019C39.1261 108.993 38.8498 108.949 38.4919 108.887C38.4605 108.887 38.4479 108.843 38.4605 108.78C38.4731 108.71 38.4982 108.685 38.5296 108.685C39.0194 108.773 39.4401 108.673 39.7854 108.377C40.1308 108.081 40.3568 107.641 40.4636 107.05L41.889 99.1119L41.8827 99.1056ZM48.4571 111.006C48.4068 111.006 48.3692 110.994 48.3503 110.969L41.8073 100.112C41.4997 99.5962 41.2171 99.2314 40.9722 99.0112C40.721 98.7911 40.4573 98.659 40.1685 98.6087C40.1433 98.6087 40.1433 98.5709 40.1496 98.5017C40.1622 98.4325 40.181 98.4011 40.1999 98.4074L40.8969 98.552C41.0413 98.5898 41.2485 98.6338 41.5248 98.6841L42.7932 98.898C42.9502 98.9169 43.1385 98.942 43.3646 98.9861C43.4525 99.0049 43.5153 99.0364 43.553 99.0867C43.5907 99.137 43.6472 99.2502 43.7351 99.4138C43.8795 99.7031 43.98 99.8981 44.0428 100.005L48.8966 108.182L48.5324 110.962C48.5324 110.994 48.4948 111.013 48.4445 111.013L48.4571 111.006ZM48.545 110.956L48.1494 110.365L49.5936 102.307C49.7004 101.703 49.6627 101.213 49.4806 100.823C49.2985 100.433 48.9908 100.2 48.5575 100.118C48.5324 100.118 48.5324 100.081 48.545 100.011C48.5575 99.9421 48.5764 99.9107 48.5952 99.917L49.3111 100.062C49.6627 100.15 49.9641 100.213 50.209 100.257C50.4288 100.294 50.7427 100.345 51.1509 100.389L51.9044 100.508C51.9044 100.508 51.9295 100.546 51.9169 100.615C51.9044 100.684 51.8855 100.716 51.8667 100.71C51.4209 100.628 51.0379 100.741 50.7239 101.049C50.4036 101.351 50.1902 101.804 50.0834 102.395L48.545 110.956Z" fill="white"/>
<path d="M55.741 103.414C55.7347 103.452 55.7034 103.465 55.6468 103.465C55.5903 103.465 55.5589 103.452 55.5589 103.414C55.5589 102.961 55.5401 102.37 55.515 101.653C55.4899 100.936 55.4585 100.395 55.4145 100.03C55.4082 99.9736 55.4333 99.9421 55.4961 99.9359C55.5589 99.9296 55.5903 99.9547 55.5966 100.011C55.6217 100.257 55.9608 100.345 56.6013 100.276C57.5683 100.2 58.6986 100.087 59.9921 99.9421C60.6577 99.8667 61.3547 99.7786 62.0956 99.6717L63.2385 99.527C63.6655 99.4767 63.9731 99.4138 64.1615 99.3383C64.3499 99.2628 64.4629 99.1307 64.5006 98.9609C64.5006 98.9169 64.5383 98.8854 64.6011 98.8791C64.6639 98.8728 64.6953 98.8917 64.7015 98.9357C64.7015 99.2754 64.7329 99.8226 64.7769 100.565C64.8208 101.313 64.8711 101.911 64.9213 102.358C64.9213 102.389 64.8962 102.414 64.846 102.42C64.7957 102.427 64.7518 102.414 64.7392 102.383C64.4755 101.534 64.0862 100.923 63.5775 100.54C63.0689 100.162 62.4787 100.005 61.8005 100.081C61.474 100.118 61.2668 100.213 61.1789 100.364C61.0847 100.515 61.0658 100.791 61.1098 101.181L61.9889 108.962C62.0266 109.308 62.0894 109.56 62.1773 109.711C62.2652 109.862 62.4033 109.95 62.598 109.987C62.7926 110.019 63.1003 110.012 63.5148 109.968C63.5461 109.968 63.5713 109.994 63.5775 110.063C63.5838 110.132 63.5775 110.163 63.5399 110.17C63.138 110.214 62.8178 110.245 62.5791 110.264L61.1789 110.409L59.8163 110.579C59.5839 110.616 59.2574 110.66 58.843 110.704C58.8116 110.704 58.7865 110.679 58.7802 110.61C58.7739 110.541 58.7802 110.509 58.8179 110.503C59.2197 110.459 59.5211 110.396 59.7095 110.314C59.8979 110.239 60.0235 110.113 60.0737 109.937C60.1302 109.767 60.1365 109.509 60.0988 109.176L59.2197 101.364C59.1758 100.98 59.0942 100.728 58.9811 100.603C58.8618 100.477 58.6483 100.433 58.3344 100.47C56.9969 100.621 56.1366 101.603 55.7473 103.414H55.741Z" fill="white"/>
<path d="M75.0748 96.187C75.7404 96.3191 76.2113 96.6902 76.4751 97.3192C76.7262 97.9168 76.7827 98.5206 76.6509 99.1433C76.5127 99.766 76.2302 100.326 75.8032 100.823C75.3762 101.32 74.8613 101.691 74.271 101.942C73.8629 102.112 73.574 102.232 73.4045 102.288L74.8676 105.742C75.0057 106.062 75.1313 106.289 75.2443 106.415C75.3573 106.54 75.5018 106.597 75.6776 106.584C75.8534 106.572 76.1046 106.496 76.4374 106.352C76.4562 106.345 76.4813 106.371 76.5064 106.433C76.5316 106.496 76.5378 106.534 76.5127 106.54C76.1674 106.685 75.8974 106.798 75.6964 106.867L74.5034 107.358L73.3731 107.855C73.1659 107.956 72.8896 108.081 72.538 108.226C72.5066 108.239 72.4752 108.214 72.45 108.151C72.4249 108.088 72.4249 108.05 72.4563 108.037C72.7891 107.899 73.0215 107.767 73.147 107.654C73.2789 107.54 73.3354 107.39 73.3291 107.213C73.3291 107.037 73.2538 106.792 73.1219 106.484L70.0639 99.244C69.9321 98.9295 69.8065 98.7156 69.6935 98.5898C69.5804 98.464 69.4297 98.4074 69.2539 98.4137C69.0718 98.4263 68.8206 98.4954 68.5004 98.6338C68.4816 98.6401 68.4564 98.615 68.4313 98.5521C68.4062 98.4892 68.3999 98.4514 68.425 98.4451L69.2602 98.1118C69.75 97.9293 70.133 97.7784 70.4156 97.6589C70.7672 97.5079 71.1314 97.3381 71.5019 97.1431C71.6337 97.0739 71.797 96.9921 71.9979 96.8978C72.1989 96.8034 72.4187 96.7028 72.6698 96.5959C73.618 96.1933 74.4217 96.0549 75.0936 96.187H75.0748ZM73.8252 97.0613C73.4359 96.8412 73.0089 96.8349 72.5442 97.0362C72.1298 97.2123 71.8661 97.4199 71.753 97.6463C71.64 97.879 71.6651 98.1747 71.8158 98.5395L73.2161 101.854C73.4861 101.791 73.7938 101.684 74.1454 101.534C74.7483 101.276 75.1125 100.923 75.2318 100.471C75.3511 100.018 75.2569 99.4201 74.9366 98.6653C74.5724 97.8098 74.202 97.2752 73.8126 97.055L73.8252 97.0613ZM78.2835 104.251C77.2725 103.653 75.979 102.773 74.4029 101.609L75.6525 100.565C77.0716 101.515 78.227 102.232 79.1186 102.729C80.0103 103.226 80.7512 103.546 81.3352 103.685C81.9254 103.829 82.4341 103.811 82.8548 103.628C82.8736 103.622 82.8987 103.647 82.9238 103.71C82.949 103.773 82.9552 103.811 82.9301 103.817L80.1484 104.993C79.9098 105.094 79.2819 104.848 78.2709 104.251H78.2835Z" fill="white"/>
<path d="M87.6961 100.54C87.6521 100.489 87.6459 100.452 87.671 100.426C87.9535 100.2 88.1419 100.018 88.2361 99.8667C88.3303 99.722 88.3491 99.5647 88.2863 99.4012C88.2298 99.2377 88.0917 99.0238 87.8845 98.7596L82.9992 92.6017C82.7857 92.3375 82.6099 92.1551 82.4717 92.067C82.3273 91.979 82.1703 91.9601 82.0008 92.0167C81.8313 92.0733 81.6052 92.2117 81.3289 92.4319C81.3038 92.4507 81.2661 92.4319 81.2222 92.3815C81.1782 92.3312 81.1719 92.2935 81.1971 92.2683L86.8233 87.7898C86.9112 87.7206 86.9865 87.7269 87.0493 87.8024L88.481 89.551C88.481 89.551 88.481 89.6014 88.437 89.6517C88.3931 89.702 88.3617 89.7146 88.3303 89.6957C87.7777 89.2931 87.2377 89.1044 86.704 89.1233C86.1702 89.1422 85.6302 89.3686 85.0839 89.8089L84.6883 90.1234C84.4246 90.3373 84.2739 90.5449 84.2425 90.7587C84.2111 90.9726 84.2865 91.199 84.4811 91.438L89.3099 97.5268C89.5171 97.7847 89.7117 97.9356 89.9064 97.9797C90.101 98.03 90.3083 97.9671 90.5218 97.7972L90.9613 97.4513C91.652 96.9041 92.0916 96.3191 92.2862 95.7027C92.4746 95.0862 92.4369 94.4069 92.1544 93.6584C92.1418 93.6395 92.1544 93.6207 92.1858 93.5892C92.2109 93.5704 92.2423 93.5578 92.2737 93.5515C92.3051 93.5515 92.3239 93.5515 92.3302 93.5578C92.7886 94.3189 93.247 94.9856 93.6928 95.5517C93.7493 95.6209 93.7744 95.6838 93.7744 95.7341C93.7744 95.7844 93.7305 95.8411 93.6551 95.9102L87.784 100.577C87.784 100.577 87.7212 100.577 87.6835 100.527L87.6961 100.54ZM89.4731 93.0168C89.0273 93.0294 88.5438 93.2433 88.0226 93.6584L86.233 95.0863L85.9379 94.7151L87.7463 93.281C88.2612 92.8722 88.5815 92.4696 88.7133 92.0733C88.8452 91.6771 88.7887 91.3185 88.5312 90.9977C88.5124 90.9726 88.525 90.9411 88.5752 90.8971C88.6254 90.8594 88.6568 90.8531 88.6819 90.8782L89.6175 92.0859L90.1387 92.7149C90.3962 93.0043 90.5908 93.237 90.7353 93.4131C90.7478 93.432 90.7353 93.4634 90.6787 93.5012C90.6285 93.5452 90.5908 93.5578 90.5783 93.5389C90.2894 93.1741 89.9252 92.998 89.4794 93.0168H89.4731Z" fill="white"/>
</g>
<defs>
<clipPath id="clip0_1_247">
<rect width="110" height="111" fill="white"/>
</clipPath>
</defs>
</svg>
