<svg width="30" height="32" viewBox="0 0 30 32" fill="none" xmlns="http://www.w3.org/2000/svg">
<g clip-path="url(#clip0_1_230)">
<path d="M8.68625 14.4442C9.20816 14.8138 11.0391 15.9761 13.4229 15.9761V17.5785L11.6202 17.9368C11.6202 17.9368 9.29279 15.3385 8.64957 14.4837C8.62982 14.4583 8.66086 14.4273 8.68625 14.4442Z" stroke="#202020" stroke-width="1.4" stroke-miterlimit="10"/>
<path d="M19.2205 3.81136C17.5391 2.15535 15 1.83374 15 1.83374C15 1.83374 12.461 2.15535 10.7796 3.81136C-1.74906 3.81136 -1.66725 14.4414 3.78037 15.9366C2.65756 12.4102 2.76476 9.79217 7.67918 9.68497C7.46478 12.4638 8.10518 18.233 10.458 21.4914C12.114 20.315 13.6628 20.1034 13.6628 20.1034L14.9972 20.8426L16.3316 20.1034C16.3316 20.1034 17.8804 20.3178 19.5364 21.4914C21.8864 18.233 22.5268 12.4638 22.3153 9.68497C27.2297 9.79217 27.3369 12.4102 26.2141 15.9366C31.6645 14.4414 31.7435 3.80854 19.2148 3.80854L19.2205 3.81136Z" stroke="#202020" stroke-width="1.4" stroke-miterlimit="10"/>
<path d="M21.3137 14.4442C20.7918 14.8138 18.9609 15.9761 16.577 15.9761V17.5785L18.3797 17.9368C18.3797 17.9368 20.7072 15.3385 21.3504 14.4837C21.3701 14.4583 21.3391 14.4273 21.3137 14.4442Z" stroke="#202020" stroke-width="1.4" stroke-miterlimit="10"/>
<path d="M10.7796 3.81136C7.93309 6.02031 7.68201 9.68779 7.68201 9.68779" stroke="#202020" stroke-width="1.4" stroke-miterlimit="10"/>
<path d="M15 12.3425V0" stroke="#202020" stroke-width="1.4" stroke-miterlimit="10"/>
<path d="M12.1252 24.6427C13.6515 23.7371 14.495 23.8809 15.0028 23.3731C15.6488 23.8499 16.2836 23.6553 17.8747 24.4029" stroke="#202020" stroke-width="1.4" stroke-miterlimit="10"/>
<path d="M9.25055 19.291C6.54508 26.5667 12.7629 29.4809 12.7629 29.4809L14.1734 28.3525L16.0128 31.1736C17.7365 27.3171 20.1825 26.8714 20.1825 26.8714C21.5479 22.8287 20.7467 19.5731 20.7467 19.5731" stroke="#202020" stroke-width="1.4" stroke-miterlimit="10"/>
<path d="M1.68701 20.0047C5.91872 18.8932 8.64394 17.3895 8.64394 17.3895" stroke="#202020" stroke-width="1.4" stroke-miterlimit="10"/>
<path d="M21.3561 17.5672C25.0348 19.1668 28.4202 19.2656 28.4202 19.2656" stroke="#202020" stroke-width="1.4" stroke-miterlimit="10"/>
<path d="M19.1979 3.81136C20.2135 4.60127 20.899 5.57457 21.3617 6.50272" stroke="#202020" stroke-width="1.4" stroke-miterlimit="10"/>
</g>
<defs>
<clipPath id="clip0_1_230">
<rect width="30" height="31.7604" fill="white"/>
</clipPath>
</defs>
</svg>
